HIERARCHY
ROOT base
{
	OFFSET 0.000000 0.000000 0.000000
	CHANNELS 6 Xposition Yposition Zposition Xrotation Yrotation Zrotation
	JOINT torso
	{
		OFFSET 0.000000 0.000000 0.393139
		CHANNELS 3 Xrotation Yrotation Zrotation
		JOINT head
		{
			OFFSET 0.000000 0.000000 0.297097
			CHANNELS 3 Xrotation Yrotation Zrotation
			End Site
			{
				OFFSET 0.000000 0.000000 0.207219
			}
		}
		JOINT arm.upper.left
		{
			OFFSET 0.202225 0.000000 0.262144
			CHANNELS 6 Xposition Yposition Zposition Xrotation Yrotation Zrotation
			JOINT arm.lower.left
			{
				OFFSET 0.029959 0.000000 -0.169769
				CHANNELS 3 Xrotation Yrotation Zrotation
				End Site
				{
					OFFSET 0.012483 0.000000 -0.174763
				}
			}
		}
		JOINT arm.upper.right
		{
			OFFSET -0.202225 0.000000 0.262144
			CHANNELS 6 Xposition Yposition Zposition Xrotation Yrotation Zrotation
			JOINT arm.lower.right
			{
				OFFSET -0.029959 0.000000 -0.169769
				CHANNELS 3 Xrotation Yrotation Zrotation
				End Site
				{
					OFFSET -0.012483 0.000000 -0.174763
				}
			}
		}
	}
	JOINT leg.upper.left
	{
		OFFSET 0.097368 0.000000 0.328227
		CHANNELS 6 Xposition Yposition Zposition Xrotation Yrotation Zrotation
		JOINT leg.lower.left
		{
			OFFSET -0.007490 0.000000 -0.182253
			CHANNELS 3 Xrotation Yrotation Zrotation
			End Site
			{
				OFFSET -0.022469 0.000000 -0.147300
			}
		}
	}
	JOINT leg.upper.right
	{
		OFFSET -0.097368 0.000000 0.328227
		CHANNELS 6 Xposition Yposition Zposition Xrotation Yrotation Zrotation
		JOINT leg.lower.right
		{
			OFFSET 0.007490 0.000000 -0.182253
			CHANNELS 3 Xrotation Yrotation Zrotation
			End Site
			{
				OFFSET 0.022469 0.000000 -0.147300
			}
		}
	}
}
MOTION
Frames: 24
Frame Time: 0.041667
0.000000 0.000000 0.000000 -0.000000 0.000000 -0.000000 -0.000000 0.000000 -0.000000 -0.000000 0.000000 -0.000000 0.202225 0.000000 0.262144 7.111261 2.899405 0.889383 0.235804 -5.546572 -0.107598 -0.202225 -0.000000 0.262144 -9.928465 -2.925252 1.273809 -0.252216 5.593713 -0.168211 0.097368 0.000000 0.328227 -19.045530 2.563045 1.617798 -0.189331 -6.082561 0.428744 -0.097368 0.000000 0.328227 21.565796 -1.956620 1.809214 0.274512 6.126228 0.425277 
0.000000 0.000000 0.000000 -0.000000 0.000000 -0.000000 -0.000000 0.000000 -0.000000 -0.000000 0.000000 -0.000000 0.202225 -0.000000 0.262144 6.800411 2.894109 0.850125 0.226868 -5.547414 -0.102545 -0.202225 0.000000 0.262144 -9.617628 -2.919038 1.234685 -0.243283 5.592829 -0.163167 0.097368 0.000000 0.328227 -18.315912 2.573992 1.554916 -0.180832 -6.083296 0.413107 -0.097368 0.000000 0.328227 20.837101 -1.988508 1.753953 0.266029 6.125367 0.409645 
0.000000 0.000000 0.000000 -0.000000 0.000000 -0.000000 -0.000000 0.000000 -0.000000 -0.000000 0.000000 -0.000000 0.202225 0.000000 0.262144 5.862394 2.879427 0.731490 0.199926 -5.549958 -0.087311 -0.202225 -0.000000 0.262144 -8.679639 -2.901565 1.116433 -0.216350 5.590170 -0.147950 0.097368 0.000000 0.328227 -16.106722 2.602258 1.363735 -0.155214 -6.085535 0.365959 -0.097368 0.000000 0.328227 18.630524 -2.080726 1.584208 0.240436 6.122787 0.362513 
0.000000 0.000000 0.000000 -0.000000 0.000000 -0.000000 -0.000000 0.000000 -0.000000 -0.000000 0.000000 -0.000000 0.202225 0.000000 0.262144 4.322389 2.859546 0.536261 0.155754 -5.554144 -0.062338 -0.202225 0.000000 0.262144 -7.139673 -2.877069 0.921730 -0.172191 5.585822 -0.123002 0.097368 0.000000 0.328227 -12.457661 2.632785 1.046006 -0.113218 -6.089250 0.288660 -0.097368 -0.000000 0.328227 14.985184 -2.218503 1.296423 0.198485 6.118595 0.285234 
0.000000 0.000000 0.000000 -0.000000 0.000000 -0.000000 -0.000000 0.000000 -0.000000 -0.000000 0.000000 -0.000000 0.202225 0.000000 0.262144 2.267213 2.841203 0.275035 0.096899 -5.559751 -0.029065 -0.202225 0.000000 0.262144 -5.084538 -2.852522 0.661016 -0.113348 5.580059 -0.089756 0.097368 0.000000 0.328227 -7.553878 2.641923 0.617202 -0.057263 -6.094288 0.185667 -0.097368 0.000000 0.328227 10.085124 -2.374288 0.896957 0.142566 6.113101 0.182259 
0.000000 0.000000 0.000000 -0.000000 0.000000 -0.000000 -0.000000 0.000000 -0.000000 -0.000000 0.000000 -0.000000 0.202225 0.000000 0.262144 -0.141428 2.831648 -0.031706 0.028008 -5.566359 0.009872 -0.202225 0.000000 0.262144 -2.675921 -2.835642 0.354592 -0.044465 5.573356 -0.050831 0.097368 0.000000 0.328227 -1.775172 2.605698 0.113101 0.008223 -6.100312 0.065112 -0.097368 0.000000 0.328227 4.308774 -2.513263 0.411128 0.077106 6.106797 0.061713 
0.000000 0.000000 0.000000 -0.000000 0.000000 -0.000000 -0.000000 0.000000 -0.000000 -0.000000 0.000000 -0.000000 0.202225 0.000000 0.262144 -2.676620 2.835522 -0.354690 -0.044464 -5.573360 0.050832 -0.202225 0.000000 0.262144 -0.140728 -2.831774 0.031610 0.028008 5.566356 -0.009875 0.097368 0.000000 0.328227 4.318618 2.512799 -0.411731 0.077107 -6.106796 -0.061717 -0.097368 0.000000 0.328227 -1.785022 -2.606081 -0.113736 0.008223 6.100312 -0.065113 
0.000000 0.000000 0.000000 -0.000000 0.000000 -0.000000 -0.000000 0.000000 -0.000000 -0.000000 0.000000 -0.000000 0.202225 0.000000 0.262144 -5.085118 2.852425 -0.661098 -0.113348 -5.580063 0.089756 -0.202225 -0.000000 0.262144 2.267795 -2.841312 -0.275111 0.096899 5.559748 0.029064 0.097368 0.000000 0.328227 10.093257 2.373845 -0.897424 0.142566 -6.113102 -0.182260 -0.097368 0.000000 0.328227 -7.562029 -2.642179 -0.617743 -0.057265 6.094291 -0.185668 
0.000000 0.000000 0.000000 -0.000000 0.000000 -0.000000 -0.000000 0.000000 -0.000000 -0.000000 0.000000 -0.000000 0.202225 0.000000 0.262144 -7.140063 2.877004 -0.921783 -0.172190 -5.585826 0.123003 -0.202225 0.000000 0.262144 4.322778 -2.859620 -0.536306 0.155754 5.554141 0.062337 0.097368 0.000000 0.328227 14.990604 2.218176 -1.296713 0.198481 -6.118596 -0.285235 -0.097368 0.000000 0.328227 -12.463102 -2.632922 -1.046373 -0.113218 6.089252 -0.288661 
0.000000 0.000000 0.000000 -0.000000 0.000000 -0.000000 -0.000000 0.000000 -0.000000 -0.000000 0.000000 -0.000000 0.202225 0.000000 0.262144 -8.679835 2.901532 -1.116455 -0.216349 -5.590172 0.147950 -0.202225 0.000000 0.262144 5.862590 -2.879468 -0.731507 0.199927 5.549954 0.087310 0.097368 0.000000 0.328227 18.633198 2.080554 -1.584343 0.240440 -6.122787 -0.362514 -0.097368 0.000000 0.328227 -16.109414 -2.602312 -1.363918 -0.155216 6.085537 -0.365960 
0.000000 0.000000 0.000000 -0.000000 0.000000 -0.000000 -0.000000 0.000000 -0.000000 -0.000000 0.000000 -0.000000 0.202225 0.000000 0.262144 -9.617676 2.919027 -1.234684 -0.243283 -5.592833 0.163166 -0.202225 0.000000 0.262144 6.800460 -2.894121 -0.850119 0.226870 5.547412 0.102545 0.097368 0.000000 0.328227 20.837814 1.988460 -1.753987 0.266022 -6.125367 -0.409647 -0.097368 0.000000 0.328227 -18.316629 -2.574004 -1.554964 -0.180835 6.083299 -0.413109 
0.000000 0.000000 0.000000 -0.000000 0.000000 -0.000000 -0.000000 0.000000 -0.000000 -0.000000 0.000000 -0.000000 0.202225 0.000000 0.262144 -9.928464 2.925250 -1.273798 -0.252216 -5.593718 0.168211 -0.202225 0.000000 0.262144 7.111260 -2.899407 -0.889371 0.235804 5.546567 0.107597 0.097368 0.000000 0.328227 21.565796 1.956620 -1.809214 0.274511 -6.126229 -0.425278 -0.097368 0.000000 0.328227 -19.045530 -2.563046 -1.617798 -0.189334 6.082561 -0.428745 
0.000000 0.000000 0.000000 -0.000000 0.000000 -0.000000 -0.000000 0.000000 -0.000000 -0.000000 0.000000 -0.000000 0.202225 0.000000 0.262144 -9.667520 2.920010 -1.240959 -0.244716 -5.592975 0.163974 -0.202225 0.000000 0.262144 6.850310 -2.894955 -0.856416 0.228302 5.547276 0.103356 0.097368 -0.000000 0.328227 20.954653 1.983397 -1.762878 0.267390 -6.125506 -0.412153 -0.097368 0.000000 0.328227 -18.433618 -2.572299 -1.565058 -0.182198 6.083179 -0.415615 
0.000000 0.000000 0.000000 -0.000000 0.000000 -0.000000 -0.000000 0.000000 -0.000000 -0.000000 0.000000 -0.000000 0.202225 0.000000 0.262144 -8.879266 2.905092 -1.141619 -0.222075 -5.590737 0.151183 -0.202225 -0.000000 0.262144 6.062029 -2.882421 -0.756749 0.205655 5.549415 0.090549 0.097368 0.000000 0.328227 19.102921 2.061483 -1.620783 0.245878 -6.123333 -0.372532 -0.097368 0.000000 0.328227 -16.579669 -2.596896 -1.404711 -0.160661 6.085059 -0.375981 
0.000000 0.000000 0.000000 -0.000000 0.000000 -0.000000 -0.000000 0.000000 -0.000000 -0.000000 0.000000 -0.000000 0.202225 0.000000 0.262144 -7.577911 2.883451 -0.977205 -0.184742 -5.587060 0.130093 -0.202225 0.000000 0.262144 4.760639 -2.864729 -0.591866 0.168308 5.552948 0.069433 0.097368 0.000000 0.328227 16.028938 2.180820 -1.379587 0.210406 -6.119780 -0.307198 -0.097368 0.000000 0.328227 -13.502423 -2.626249 -1.137076 -0.125156 6.088190 -0.310631 
0.000000 0.000000 0.000000 -0.000000 0.000000 -0.000000 -0.000000 0.000000 -0.000000 -0.000000 0.000000 -0.000000 0.202225 0.000000 0.262144 -5.818900 2.860135 -0.754280 -0.134349 -5.582115 0.101623 -0.202225 0.000000 0.262144 3.001589 -2.846770 -0.368450 0.117905 5.557741 0.040941 0.097368 0.000000 0.328227 11.845683 2.322082 -1.041816 0.162526 -6.115051 -0.219013 -0.097368 0.000000 0.328227 -9.315622 -2.643065 -0.771187 -0.077234 6.092480 -0.222427 
0.000000 0.000000 0.000000 -0.000000 0.000000 -0.000000 -0.000000 0.000000 -0.000000 -0.000000 0.000000 -0.000000 0.202225 0.000000 0.262144 -3.709683 2.841205 -0.486199 -0.074004 -5.576227 0.067526 -0.202225 0.000000 0.262144 0.892342 -2.834280 -0.099995 0.057550 5.563517 0.006823 0.097368 0.000000 0.328227 6.798212 2.459150 -0.621990 0.105180 -6.109483 -0.113407 -0.097368 0.000000 0.328227 -4.265361 -2.627784 -0.329684 -0.019857 6.097712 -0.116809 
0.000000 0.000000 0.000000 -0.000000 0.000000 -0.000000 -0.000000 0.000000 -0.000000 -0.000000 0.000000 -0.000000 0.202225 0.000000 0.262144 -1.408975 2.831810 -0.193211 -0.008229 -5.569852 0.030354 -0.202225 0.000000 0.262144 -1.408376 -2.831916 0.193130 -0.008229 5.569848 -0.030354 0.097368 0.000000 0.328227 1.271199 2.566250 -0.150513 0.042667 -6.103535 0.001695 -0.097368 0.000000 0.328227 1.262721 -2.566615 0.149979 0.042667 6.103536 -0.001697 
0.000000 0.000000 0.000000 -0.000000 0.000000 -0.000000 -0.000000 0.000000 -0.000000 -0.000000 0.000000 -0.000000 0.202225 0.000000 0.262144 0.891790 2.834179 0.099922 0.057550 -5.563518 -0.006824 -0.202225 0.000000 0.262144 -3.709130 -2.841298 0.486122 -0.074004 5.576226 -0.067524 0.097368 0.000000 0.328227 -4.257520 2.627504 0.329171 -0.019857 -6.097709 0.116808 -0.097368 0.000000 0.328227 6.790382 -2.459544 0.621522 0.105180 6.109484 0.113407 
0.000000 0.000000 0.000000 -0.000000 0.000000 -0.000000 -0.000000 0.000000 -0.000000 -0.000000 0.000000 -0.000000 0.202225 0.000000 0.262144 3.001153 2.846688 0.368396 0.117905 -5.557745 -0.040939 -0.202225 -0.000000 0.262144 -5.818464 -2.860209 0.754221 -0.134351 5.582112 -0.101624 0.097368 0.000000 0.328227 -9.309472 2.642886 0.770776 -0.077234 -6.092479 0.222427 -0.097368 0.000000 0.328227 11.839551 -2.322428 1.041472 0.162525 6.115050 0.219012 
0.000000 0.000000 0.000000 -0.000000 0.000000 -0.000000 -0.000000 0.000000 -0.000000 -0.000000 0.000000 -0.000000 0.202225 0.000000 0.262144 4.760356 2.864672 0.591836 0.168309 -5.552952 -0.069434 -0.202225 0.000000 0.262144 -7.577630 -2.883497 0.977169 -0.184741 5.587055 -0.130092 0.097368 0.000000 0.328227 -13.498449 2.626155 1.136807 -0.125155 -6.088189 0.310629 -0.097368 -0.000000 0.328227 16.024988 -2.181064 1.379378 0.210408 6.119780 0.307197 
0.000000 0.000000 0.000000 -0.000000 0.000000 -0.000000 -0.000000 0.000000 -0.000000 -0.000000 0.000000 -0.000000 0.202225 0.000000 0.262144 6.061894 2.882392 0.756742 0.205654 -5.549416 -0.090549 -0.202225 -0.000000 0.262144 -8.879129 -2.905115 1.141607 -0.222073 5.590733 -0.151183 0.097368 0.000000 0.328227 -16.577747 2.596858 1.404580 -0.160660 -6.085057 0.375981 -0.097368 0.000000 0.328227 19.101008 -2.061607 1.620688 0.245879 6.123334 0.372532 
0.000000 0.000000 0.000000 -0.000000 0.000000 -0.000000 -0.000000 0.000000 -0.000000 -0.000000 0.000000 -0.000000 0.202225 0.000000 0.262144 6.850274 2.894945 0.856422 0.228302 -5.547279 -0.103355 -0.202225 0.000000 0.262144 -9.667487 -2.920019 1.240964 -0.244714 5.592972 -0.163975 0.097368 0.000000 0.328227 -18.433111 2.572290 1.565024 -0.182203 -6.083177 0.415613 -0.097368 0.000000 0.328227 20.954151 -1.983430 1.762854 0.267387 6.125506 0.412153 
0.000000 0.000000 0.000000 -0.000000 0.000000 -0.000000 -0.000000 0.000000 -0.000000 -0.000000 0.000000 -0.000000 0.202225 0.000000 0.262144 7.111261 2.899405 0.889383 0.235804 -5.546572 -0.107598 -0.202225 -0.000000 0.262144 -9.928465 -2.925252 1.273809 -0.252216 5.593713 -0.168211 0.097368 0.000000 0.328227 -19.045530 2.563045 1.617798 -0.189331 -6.082561 0.428744 -0.097368 0.000000 0.328227 21.565796 -1.956620 1.809214 0.274512 6.126228 0.425277 
